<?xml version="1.0" standalone="no"?>
<!DOCTYPE svg PUBLIC "-//W3C//DTD SVG 20010904//EN"
 "http://www.w3.org/TR/2001/REC-SVG-20010904/DTD/svg10.dtd">
<svg version="1.0" xmlns="http://www.w3.org/2000/svg"
 width="539.000000pt" height="539.000000pt" viewBox="0 0 539.000000 539.000000"
 preserveAspectRatio="xMidYMid meet">
<metadata>
Created by potrace 1.11, written by Peter Selinger 2001-2013
</metadata>
<g transform="translate(0.000000,539.000000) scale(0.100000,-0.100000)"
fill="#000000" stroke="none">
<path d="M2498 5385 c-2 -1 -34 -5 -73 -9 -238 -21 -540 -98 -775 -198 -489
-209 -907 -554 -1192 -984 -85 -128 -115 -181 -192 -339 -143 -294 -217 -561
-256 -925 -8 -75 -5 -477 3 -515 3 -11 8 -49 12 -85 4 -36 9 -68 11 -71 2 -3
6 -24 9 -45 15 -112 107 -435 155 -539 135 -299 238 -471 406 -680 382 -474
962 -826 1549 -939 112 -22 133 -25 190 -32 28 -3 77 -9 110 -14 63 -8 472 -6
515 3 14 3 48 8 75 11 59 7 73 9 231 41 535 108 1088 438 1458 870 28 32 59
68 68 79 10 11 51 67 92 125 272 388 438 833 483 1296 14 148 7 556 -12 625
-2 8 -6 33 -10 55 -30 214 -106 470 -202 683 -221 489 -568 887 -1038 1186
-173 111 -473 245 -661 297 -87 23 -267 64 -328 73 -21 4 -48 8 -60 11 -66 14
-555 32 -568 20z"/>
</g>
</svg>
